<svg xmlns="http://www.w3.org/2000/svg" viewBox="0 0 100 100" width="100" height="100">
  <!-- Squash racket head (teardrop/oval shape) -->
  <ellipse cx="50" cy="30" rx="16" ry="20" fill="none" stroke="white" stroke-width="3.5"/>
  
  <!-- String pattern - vertical -->
  <line x1="40" y1="16" x2="40" y2="44" stroke="white" stroke-width="1"/>
  <line x1="45" y1="14" x2="45" y2="46" stroke="white" stroke-width="1"/>
  <line x1="50" y1="12" x2="50" y2="48" stroke="white" stroke-width="1"/>
  <line x1="55" y1="14" x2="55" y2="46" stroke="white" stroke-width="1"/>
  <line x1="60" y1="16" x2="60" y2="44" stroke="white" stroke-width="1"/>
  
  <!-- String pattern - horizontal -->
  <line x1="36" y1="22" x2="64" y2="22" stroke="white" stroke-width="1"/>
  <line x1="35" y1="28" x2="65" y2="28" stroke="white" stroke-width="1"/>
  <line x1="34" y1="34" x2="66" y2="34" stroke="white" stroke-width="1"/>
  <line x1="36" y1="40" x2="64" y2="40" stroke="white" stroke-width="1"/>
  
  <!-- Throat (connecting piece) -->
  <path d="M 44 48 L 42 54 L 42 58 L 58 58 L 58 54 L 56 48" fill="none" stroke="white" stroke-width="3"/>
  
  <!-- Handle -->
  <rect x="45" y="58" width="10" height="30" rx="5" fill="white"/>
  
  <!-- Handle grip lines -->
  <line x1="45" y1="64" x2="55" y2="64" stroke="black" stroke-width="0.8" opacity="0.3"/>
  <line x1="45" y1="70" x2="55" y2="70" stroke="black" stroke-width="0.8" opacity="0.3"/>
  <line x1="45" y1="76" x2="55" y2="76" stroke="black" stroke-width="0.8" opacity="0.3"/>
  <line x1="45" y1="82" x2="55" y2="82" stroke="black" stroke-width="0.8" opacity="0.3"/>
</svg>